<?xml version="1.0" standalone="no"?>
<!DOCTYPE svg PUBLIC "-//W3C//DTD SVG 1.1//EN" "http://www.w3.org/Graphics/SVG/1.1/DTD/svg11.dtd" >
<svg xmlns="http://www.w3.org/2000/svg">
<metadata></metadata>
<defs>
<font id="frutigerregular" horiz-adv-x="1100" >
<font-face units-per-em="2048" ascent="1638" descent="-410" />
<missing-glyph horiz-adv-x="569" />
<glyph horiz-adv-x="0" />
<glyph unicode="&#xd;" horiz-adv-x="0" />
<glyph unicode=" "  horiz-adv-x="569" />
<glyph unicode="&#x09;" horiz-adv-x="569" />
<glyph unicode="&#xa0;" horiz-adv-x="569" />
<glyph unicode="!" horiz-adv-x="801" d="M332 1366h225l-25 -987h-167zM344 0v211h213v-211h-213z" />
<glyph unicode="&#x22;" horiz-adv-x="666" d="M86 1475h203l-31 -547h-141zM375 1475h205l-33 -547h-139z" />
<glyph unicode="#" d="M41 414l20 131h177l47 301h-176l22 131h182l62 389h153l-61 -383h264l62 383h153l-61 -389h178l-21 -131h-180l-47 -301h182l-20 -131h-182l-66 -414h-154l66 414h-264l-66 -414h-153l65 414h-182zM397 545h265l49 301h-267z" />
<glyph unicode="$" d="M96 1010q0 158 101 254t282 112v172h107v-170q177 -4 332 -57l-19 -184q-74 35 -148 56q-65 18 -165 26v-418q102 -37 166.5 -68t118.5 -72q126 -99 126 -266q2 -163 -115 -275.5t-307 -129.5v-172h-104v170q-103 2 -229 30q-40 8 -125 31l14 199q89 -45 167.5 -65 t172.5 -23v477q-162 48 -269 138q-106 90 -106 235zM295 1030q0 -67 42 -109q41 -42 142 -83v370q-86 -15 -135 -62t-49 -116zM575 164q92 13 158 72t66 143q0 147 -224 221v-436z" />
<glyph unicode="%" horiz-adv-x="1665" d="M47 1036q1 165 86.5 259.5t237.5 93.5q155 0 239 -92t84 -261q0 -162 -87 -259t-234 -97q-150 -3 -239 95.5t-87 260.5zM201 1030q0 -109 45 -171t125 -62t125 62.5t45 174.5q0 114 -44 177t-124 63q-81 0 -126.5 -64.5t-45.5 -179.5zM332 -84l868 1534h129l-868 -1534 h-129zM969 334q0 166 85.5 259t237.5 93q155 0 239.5 -91.5t84.5 -258.5q2 -160 -87 -259.5t-235 -96.5q-149 -2 -238.5 95t-86.5 259zM1122 330q0 -111 45.5 -173.5t124.5 -62.5q81 0 125.5 62.5t44.5 175.5q0 114 -43.5 176.5t-122.5 62.5q-82 0 -128 -63.5t-46 -177.5z " />
<glyph unicode="&#x26;" horiz-adv-x="1425" d="M162 375q1 74 22.5 134t64.5 106t96.5 81t129.5 68q-66 57 -109 141q-44 86 -44 166q-1 141 103.5 225t252.5 82q87 1 165 -32t128.5 -99.5t48.5 -152.5q-1 -116 -80 -208.5t-209 -154.5l270 -325q75 131 86 335h183q-15 -297 -152 -467l232 -274h-240l-109 129 q-162 -156 -370 -156q-119 0 -228 48q-108 46 -175 139q-66 91 -66 215zM369 381q0 -104 79 -174q80 -72 181 -72q137 0 264 127l-320 385q-69 -39 -110 -73.5t-67 -80.5q-27 -49 -27 -112zM512 1069q0 -58 28 -102q27 -47 91 -127q69 40 108 70.5t68 72.5q31 43 31 96 q0 64 -50 103t-116 39t-112 -43q-48 -44 -48 -109z" />
<glyph unicode="'" horiz-adv-x="375" d="M86 1475h203l-31 -547h-141z" />
<glyph unicode="(" horiz-adv-x="725" d="M127 535q0 305 150 631q67 145 167 309h174q-141 -254 -214.5 -495t-73.5 -445q0 -418 297 -953h-176q-324 501 -324 953z" />
<glyph unicode=")" horiz-adv-x="725" d="M98 1475h176q324 -501 324 -953q0 -239 -84 -467q-82 -225 -233 -473h-175q141 254 215 495.5t74 444.5q0 209 -75 447q-78 245 -222 506z" />
<glyph unicode="*" d="M168 1145l43 137l276 -100l-10 293h146l-13 -293l279 102l45 -139l-281 -80l183 -231l-119 -86l-164 243l-162 -243l-117 83l177 234z" />
<glyph unicode="+" d="M78 623v149h395v383h152v-383h395v-149h-395v-383h-152v383h-395z" />
<glyph unicode="," horiz-adv-x="547" d="M41 -264l123 483h219l-170 -483h-172z" />
<glyph unicode="-" horiz-adv-x="514" d="M0 428v154h514v-154h-514z" />
<glyph unicode="." horiz-adv-x="547" d="M164 0v219h219v-219h-219z" />
<glyph unicode="/" horiz-adv-x="891" d="M-59 -418l692 1893h158l-687 -1893h-163z" />
<glyph unicode="0" d="M86 692q0 177 40 333q39 157 142 260q102 104 281 104q136 0 231.5 -62.5t147.5 -171.5q86 -182 86 -483q0 -179 -38 -336q-40 -157 -142 -259q-104 -104 -285 -104t-284 109q-104 110 -141 269q-38 163 -38 341zM285 686q0 -209 53 -382q52 -171 215 -171q130 0 196 139 t66 410q0 266 -68.5 406.5t-199.5 140.5q-125 0 -193.5 -141.5t-68.5 -401.5z" />
<glyph unicode="1" d="M213 1087l336 279h180v-1366h-194v829q0 26 0.5 76t1.5 73v175q-24 -31 -56 -61q-30 -28 -84 -72q-41 -34 -75 -62z" />
<glyph unicode="2" d="M109 0v207q255 217 400 375q97 104 166 218q66 110 66 201q0 97 -75 160q-77 62 -193 62q-146 0 -311 -99l-21 176q116 48 191 65t172 17q194 3 321.5 -104.5t124.5 -269.5q0 -131 -78 -263q-76 -127 -276 -331q-166 -166 -297 -262q44 10 145 10h535v-162h-870z" />
<glyph unicode="3" d="M109 37l8 182q186 -78 334 -78q128 -2 216.5 68t86.5 172q0 142 -119 195q-120 53 -281 53q-25 0 -63 -2v166q129 0 222 15.5t162 62.5q75 49 75 149q0 90 -77.5 147.5t-199.5 57.5q-146 0 -309 -68l-14 168q159 59 333 59q195 0 330 -87q135 -89 135 -273 q0 -126 -90 -213q-91 -88 -237 -100q154 -9 248 -104t94 -242q2 -173 -136 -279.5t-366 -103.5q-181 0 -352 55z" />
<glyph unicode="4" d="M43 299v162l553 905h281v-905h180v-162h-180v-299h-195v299h-639zM238 461h45h399v540q0 54 11 169q11 109 12 130q-18 -53 -37 -96q-22 -50 -69 -135q-43 -76 -101 -176l-131 -221q-10 -18 -27.5 -48.5t-26.5 -46t-22 -37.5t-26 -41t-27 -38z" />
<glyph unicode="5" d="M170 33l6 180q154 -68 277 -68q142 -3 234.5 77t90.5 200q0 127 -94 201.5t-248 74.5q-118 0 -256 -47l8 707h758v-162h-575l-6 -254q0 -16 -5 -104q72 20 152 20q209 2 343 -118t132 -308q0 -202 -145 -324t-387 -122q-147 0 -285 47z" />
<glyph unicode="6" d="M106 639q0 367 142 557t414 190q145 0 280 -43l-24 -174q-122 58 -250 58q-97 0 -171.5 -44t-117 -119t-63.5 -162.5t-21 -184.5q40 70 125 111q83 40 184 40q175 4 292.5 -123t115.5 -313q3 -197 -124.5 -328.5t-316.5 -128.5q-228 0 -346.5 170t-118.5 494zM317 436 q0 -130 72 -215q72 -86 178 -86t176 81.5t70 205.5q1 123 -71 206t-179 81q-104 0 -175 -77q-71 -79 -71 -196z" />
<glyph unicode="7" d="M104 1194v162h873v-162l-512 -1194h-217l407 930q86 190 129 268q-49 0 -114 -4h-566z" />
<glyph unicode="8" d="M78 352q0 134 80.5 229t218.5 144q-120 25 -194 118q-74 92 -74 212q0 65 25 120t67.5 93.5t99 65.5t117.5 39.5t125 12.5q61 1 122 -11t117.5 -38.5t100 -64t69.5 -92.5t25 -119q0 -114 -70 -196t-184 -132q136 -44 217.5 -139.5t81.5 -228.5q2 -89 -36 -164.5 t-102 -124t-146 -75.5t-171 -26q-88 -1 -175 23.5t-158.5 70.5t-115 120t-40.5 163zM289 375q0 -109 83 -174q82 -66 193 -66q106 0 181 58.5t75 154.5q0 115 -85 182q-85 65 -220 115q-98 -48 -162 -114q-65 -67 -65 -156zM307 1051q0 -87 80 -146q77 -57 203 -112 q186 120 186 258q2 82 -71 136t-164 52q-91 0 -162.5 -53t-71.5 -135z" />
<glyph unicode="9" d="M80 940q-2 193 124.5 325t311.5 128q227 0 347 -167.5t120 -484.5q0 -376 -142 -570t-419 -194q-74 0 -130.5 9.5t-141.5 36.5l24 174q129 -60 248 -60q190 0 277 150q86 149 100 358q-114 -147 -307 -147q-179 -3 -297 124t-115 318zM279 946q0 -123 71 -206t178 -83 q105 0 175 79q69 78 69 196q2 125 -71 215t-177 86q-104 2 -175 -81t-70 -206z" />
<glyph unicode=":" horiz-adv-x="547" d="M164 0v219h219v-219h-219zM164 782v219h219v-219h-219z" />
<glyph unicode=";" horiz-adv-x="547" d="M41 -264l123 483h219l-168 -483h-174zM145 782v217h217v-217h-217z" />
<glyph unicode="&#x3c;" horiz-adv-x="1024" d="M68 612v158l886 428v-184l-690 -322l690 -323v-183z" />
<glyph unicode="=" d="M78 477v150h942v-150h-942zM78 764v149h942v-149h-942z" />
<glyph unicode="&#x3e;" horiz-adv-x="1024" d="M70 186v185l690 321l-690 324v182l886 -428v-158z" />
<glyph unicode="?" horiz-adv-x="1042" d="M199 1327q165 59 336 59q178 3 298 -98t117 -252q0 -87 -40.5 -166.5t-149.5 -207.5q-82 -93 -101 -139q-20 -49 -20 -142h-176q0 87 10 137q9 50 33 97q24 45 69 96q4 5 23.5 26.5t25 28.5t23 27.5t23.5 29.5t20 28.5t20 31.5t15 30.5t13 33.5t7 32.5t3 34.5 q0 93 -65.5 146.5t-176.5 53.5q-145 0 -293 -75zM449 0v213h208v-213h-208z" />
<glyph unicode="@" horiz-adv-x="1563" d="M98 678q0 194 95 360q96 165 259 259t363 94q183 1 332.5 -78t233.5 -218.5t83 -310.5q2 -120 -45.5 -233t-127 -182t-165.5 -66q-60 0 -101 35t-50 94q-44 -67 -111.5 -104t-144.5 -37q-124 0 -205 93q-82 91 -82 232q0 76 26.5 151t72 135.5t114 97t146.5 34.5 q159 0 217 -139l22 115h131l-82 -420q-12 -62 -12 -96q0 -35 19.5 -58.5t46.5 -23.5q79 -2 147.5 115t65.5 255q0 215 -147 353q-70 66 -168.5 101.5t-211.5 35.5q-162 2 -299.5 -77.5t-216 -217.5t-76.5 -301q-1 -167 77 -301.5t215 -209t304 -73.5q117 0 218 21 q111 23 202 65l33 -119q-202 -86 -449 -86q-203 0 -370 89t-263 249q-96 161 -96 367zM580 623q0 -89 48 -144t124 -55q89 0 152 84t63 207q0 81 -44 130.5t-118 49.5q-93 0 -159 -81t-66 -191z" />
<glyph unicode="A" horiz-adv-x="1399" d="M10 0l582 1366h205l592 -1366h-220l-143 346h-664l-141 -346h-211zM424 512h534l-157 381q-54 127 -70 172q-23 64 -41 133q-13 -48 -35 -109q-7 -17 -80 -200z" />
<glyph unicode="B" horiz-adv-x="1186" d="M176 0v1366h324q107 0 128 -1q19 -1 70 -7q153 -21 244 -113q90 -91 90 -229q0 -254 -291 -322q153 -21 241 -100q89 -80 89 -227q0 -100 -49 -182.5t-137 -129.5q-56 -30 -129.5 -42.5t-190.5 -12.5h-389zM371 166h149q147 0 248 46q102 45 102 173q0 150 -112 195 t-285 45h-102v-459zM371 784h139q328 0 328 207q0 134 -125 179q-51 18 -102 23t-140 5h-100v-414z" />
<glyph unicode="C" horiz-adv-x="1190" d="M98 690q0 199 91 354q90 156 255 243q163 87 371 87q178 0 311 -59l-16 -187q-76 45 -141 63q-66 17 -144 17q-227 0 -372.5 -143t-145.5 -371v-8q-1 -142 67 -262q70 -123 192 -193q117 -67 256 -67h12q140 0 292 61l15 -188q-78 -25 -145 -36q-60 -11 -156 -11h-10 q-207 0 -372 82q-170 84 -266 244q-95 158 -94 365v9z" />
<glyph unicode="D" horiz-adv-x="1411" d="M176 0v1366h283q149 0 229 -10q136 -13 254 -70t201 -147q170 -187 170 -461q-1 -225 -124 -395.5t-333 -237.5q-77 -26 -156 -35.5t-213 -9.5h-311zM371 166h100q138 0 205 10q70 10 141 39q134 59 210.5 184t76.5 285q0 165 -89.5 297.5t-234.5 181.5q-89 35 -307 35 h-102v-1032z" />
<glyph unicode="E" horiz-adv-x="1079" d="M176 0v1366h760v-168h-565v-401h524v-168h-524v-463h581v-166h-776z" />
<glyph unicode="F" horiz-adv-x="987" d="M176 0v1366h725v-168h-530v-407h510v-166h-510v-625h-195z" />
<glyph unicode="G" horiz-adv-x="1407" d="M98 692v12q0 201 98 354q100 157 270 238q165 78 368 78h10q202 0 373 -65l-13 -189q-157 88 -348 88h-13q-151 0 -273 -64q-127 -68 -196 -188q-67 -116 -67 -258v-8v-12q0 -226 154 -374t390 -148h13q88 0 185 28v396h-293v165h487v-692q-192 -63 -391 -63h-7 q-337 0 -543 190q-204 188 -204 500v12z" />
<glyph unicode="H" horiz-adv-x="1403" d="M176 0v1366h195v-573h661v573h195v-1366h-195v627h-661v-627h-195z" />
<glyph unicode="I" horiz-adv-x="573" d="M188 0v1366h195v-1366h-195z" />
<glyph unicode="J" horiz-adv-x="754" d="M39 6v170q75 -29 143 -29q134 0 176 108q17 44 22 93.5t5 138.5v879h195v-928v-106q-4 -171 -99 -260.5t-270 -89.5q-57 0 -172 24z" />
<glyph unicode="K" horiz-adv-x="1290" d="M176 0v1366h195v-457q0 -83 -4 -164q48 58 112 125l477 496h263l-646 -647l701 -719h-285l-495 530q-43 43 -125 146q2 -90 2 -139v-537h-195z" />
<glyph unicode="L" horiz-adv-x="983" d="M176 0v1366h195v-1200h577v-166h-772z" />
<glyph unicode="M" horiz-adv-x="1853" d="M176 0v1366h320l270 -686q63 -158 99 -253q38 -106 63 -206q52 179 164 463l260 682h325v-1366h-192v780q1 42 2.5 135.5t1.5 134.5q0 18 0.5 53t1.5 50v123q-13 -46 -55 -172q-38 -113 -72 -205q-8 -21 -38.5 -102.5t-49.5 -132.5l-258 -664h-189l-258 664 q-44 114 -120 316q-64 167 -101 296q0 -11 -2 -21q0 -14 6 -65q1 -5 1.5 -14.5t0.5 -14.5q15 -127 15 -395v-766h-195z" />
<glyph unicode="N" horiz-adv-x="1444" d="M176 0v1366h266l465 -805q140 -243 189 -391q-13 136 -15 184q-2 106 -3 158q0 21 -0.5 44t-1 35.5t-0.5 18.5q-1 13 -1 99v657h193v-1366h-252l-432 741q-105 185 -154 281q-43 82 -76 188q17 -232 17 -516v-694h-195z" />
<glyph unicode="O" horiz-adv-x="1518" d="M98 682q0 312 172 507q85 97 210 149.5t276 52.5h6q149 1 272 -51q126 -52 210.5 -147t130.5 -227q44 -126 44 -271v-13q0 -326 -177.5 -517.5t-479.5 -191.5h-11q-145 -1 -267 51q-126 54 -210 150q-86 95 -132 226q-45 126 -44 270v12zM307 684q0 -119 33 -224t94 -179 q125 -154 326 -154h4q126 -1 228 69q104 70 162 198q56 122 56 272v10q0 254 -125.5 407.5t-330.5 153.5h-7q-125 -1 -225 -69q-104 -70 -160 -198q-55 -123 -55 -275v-11z" />
<glyph unicode="P" horiz-adv-x="1087" d="M178 0v1366h271q141 0 218 -8q75 -9 128 -31q113 -40 181 -140q66 -101 66 -229q0 -129 -65 -228t-178 -144q-103 -39 -318 -39h-108v-547h-195zM373 713h106q158 0 256 52q99 51 99 193q0 103 -69 165t-194 71q-57 4 -198 4v-485z" />
<glyph unicode="Q" horiz-adv-x="1518" d="M98 682q0 322 179.5 515.5t480.5 193.5h11q149 0 270 -51q126 -54 209 -150t128 -228q43 -128 43 -279v-7q0 -228 -94 -396t-268 -249l327 -295h-256l-260 241q-87 -4 -104 -4q-147 0 -270.5 49.5t-212.5 143.5t-136 226.5t-47 289.5zM307 690q0 -120 33.5 -226 t93.5 -181q126 -156 324 -156h5q195 0 321 153q126 151 126 387v11q0 253 -124.5 406t-327.5 153h-10q-123 0 -224 -67q-104 -71 -162 -198q-55 -122 -55 -272v-10z" />
<glyph unicode="R" horiz-adv-x="1194" d="M176 0v1366h328q128 0 185 -7q61 -7 124 -30q102 -34 163.5 -121.5t61.5 -201.5q0 -131 -76 -213.5t-212 -106.5q66 -32 97 -66q33 -38 73 -122l229 -498h-223l-176 410q-41 93 -70 132q-31 40 -73 53t-124 13h-112v-608h-195zM371 776h121q346 0 346 213q0 129 -90 169 t-236 40h-141v-422z" />
<glyph unicode="S" horiz-adv-x="971" d="M88 1018v8q0 160 119 262q120 104 304 103h7q158 0 299 -50l-24 -172q-147 56 -256 56q-111 0 -178.5 -52t-67.5 -137q0 -90 63 -136q61 -46 220 -128q155 -81 236 -165q79 -83 79 -222v-8q0 -177 -129 -291q-128 -114 -325 -113h-13q-162 0 -311 54l20 184 q151 -72 268 -72q128 0 204.5 62.5t76.5 169.5q0 103 -69 155q-67 51 -219 124q-151 72 -227 150q-77 77 -77 218z" />
<glyph unicode="T" horiz-adv-x="1083" d="M12 1198v168h1059v-168h-428v-1198h-194v1198h-437z" />
<glyph unicode="U" horiz-adv-x="1409" d="M176 621v743h195v-715q0 -144 10 -214q9 -73 39 -132q39 -77 117.5 -120.5t175.5 -43.5q156 0 234.5 99t88.5 266q2 34 2 137v723h195v-768q0 -155 -17 -245q-18 -88 -63 -158q-68 -108 -182 -164t-264 -56q-171 0 -295 72.5t-183 206.5q-53 120 -53 369z" />
<glyph unicode="V" horiz-adv-x="1296" d="M10 1366h215l334 -901q51 -127 96 -305q29 130 93 305l333 901h205l-516 -1366h-238z" />
<glyph unicode="W" horiz-adv-x="1954" d="M8 1366h213l236 -799q65 -223 96 -377q35 210 86 383l197 793h280l209 -799q12 -47 39 -158q23 -100 55 -219q25 158 90 377l234 799h201l-410 -1366h-248l-237 897q-26 69 -54 210q-4 20 -8 39.5t-8.5 37t-5.5 24.5q-50 -245 -68 -311l-225 -897h-252z" />
<glyph unicode="X" horiz-adv-x="1300" d="M12 0l504 717l-465 649h236l362 -516l361 516h225l-459 -649l512 -717h-248l-405 584l-389 -584h-234z" />
<glyph unicode="Y" horiz-adv-x="1288" d="M10 1366h242l338 -512q42 -64 59 -102q27 52 56 96l342 518h231l-533 -786v-580h-194v573z" />
<glyph unicode="Z" horiz-adv-x="1094" d="M61 0v166l553 803q76 109 85 121q22 30 46 60q32 40 46 54q-96 -6 -191 -6h-514v168h915v-180l-587 -840q-22 -33 -64 -89q-21 -29 -65 -95q44 4 151 4h578v-166h-953z" />
<glyph unicode="[" horiz-adv-x="727" d="M195 -418v1893h380v-134h-204v-1628h204v-131h-380z" />
<glyph unicode="\" horiz-adv-x="891" d="M100 1475h158l692 -1893h-164z" />
<glyph unicode="]" horiz-adv-x="727" d="M152 -285h204v1628h-204v132h380v-1893h-380v133z" />
<glyph unicode="^" horiz-adv-x="1024" d="M39 729l352 641h242l352 -641h-197l-276 496l-276 -496h-197z" />
<glyph unicode="_" horiz-adv-x="1024" d="M0 -121h1024v-168h-1024v168z" />
<glyph unicode="`" horiz-adv-x="1024" d="M260 1483h205l162 -281h-131z" />
<glyph unicode="a" horiz-adv-x="1083" d="M88 287q0 158 135.5 242.5t388.5 84.5q83 0 140 -4q-2 129 -63 189.5t-187 60.5q-81 0 -149 -22.5t-146 -73.5l-10 162q157 92 335 92q141 0 236.5 -53.5t132.5 -151.5q31 -81 31 -278v-195q0 -230 10 -340h-170q-2 46 -2 78q0 40 2 94q-58 -97 -138 -141.5t-198 -44.5 h-7q-151 0 -246 82t-95 214v5zM285 289q0 -69 53.5 -112.5t138.5 -43.5q279 0 279 340q-62 6 -101 6q-370 0 -370 -190z" />
<glyph unicode="b" horiz-adv-x="1182" d="M145 0v1475h187v-531q0 -58 -6 -117q38 87 132 139t212 52q197 0 314.5 -138t117.5 -370q0 -237 -119 -380.5t-315 -143.5q-116 0 -206 48.5t-138 135.5v-170h-179zM336 500q-1 -97 37 -180q37 -83 105 -131q65 -46 141 -46h6h9q112 -1 191 101q80 103 80 251v7 q0 158 -75 259q-76 99 -199 99h-7q-120 0 -204 -103q-84 -102 -84 -247v-10z" />
<glyph unicode="c" horiz-adv-x="874" d="M80 500v8q0 138 64 254q66 120 182 187q113 65 248 65h8q116 0 227 -41l-12 -164q-77 45 -183 45h-6q-141 0 -237 -97q-95 -96 -95 -240v-9v-7q0 -154 92.5 -255t235.5 -101h6q58 0 104.5 14.5t104.5 49.5l15 -170q-111 -51 -246 -51h-6q-220 0 -362 142 q-140 140 -140 358v12z" />
<glyph unicode="d" horiz-adv-x="1188" d="M80 496v10q0 144 54 260q56 120 156 188q99 65 221 64h7q214 0 332 -174q0 14 -3 68.5t-3 68.5v494h186v-1008q0 -60 5 -235q4 -157 9 -232h-180v168q-61 -93 -145 -137.5t-201 -44.5h-8q-191 0 -311 138q-119 138 -119 361v11zM276 498q0 -157 79 -255q79 -100 202 -100 h9q116 0 198 102q84 104 84 248v6.5v7.5q0 145 -82 249t-197 104h-6h-9q-118 0 -197 -101q-82 -105 -81 -261z" />
<glyph unicode="e" horiz-adv-x="1069" d="M80 512v13q0 219 129 360q131 143 336 143h6h6q92 0 165 -30q75 -30 124 -82.5t81 -127.5t46 -157t14 -178h-721q20 -149 110 -235q89 -87 224 -87q154 0 313 94v-178q-169 -74 -321 -74h-6q-228 0 -366 147q-140 149 -140 392zM268 598h533q-15 130 -77 206.5t-179 76.5 q-110 0 -183.5 -75.5t-93.5 -207.5z" />
<glyph unicode="f" horiz-adv-x="723" d="M6 852v145h236q0 153 25 254.5t92 164.5q70 67 206 67q61 0 135 -17v-155q-52 12 -96 12q-112 0 -144 -71q-32 -73 -32 -203v-52h272v-145h-272v-852h-186v852h-236z" />
<glyph unicode="g" horiz-adv-x="1159" d="M80 496v7q0 223 122 370q120 145 304 145h10q118 0 209 -52q92 -53 129 -139q2 22 2 25l-2 27v125h174v-830q0 -159 -18.5 -264t-67.5 -180q-106 -162 -401 -162q-190 0 -381 67l18 181q188 -90 359 -90q102 0 174.5 39t105.5 112q33 63 35 193q0 52 2 94 q-112 -166 -334 -166h-6q-191 0 -312 137q-122 137 -122 354v7zM276 498q0 -152 78 -247t199 -95q129 0 211 98t82 252v10q0 140 -82 242q-84 102 -198 102h-7h-5q-119 0 -198 -102q-80 -102 -80 -253v-7z" />
<glyph unicode="h" horiz-adv-x="1161" d="M143 0v1475h187v-480q0 -79 -6 -155q102 178 333 178q141 0 226.5 -63.5t117.5 -176.5q31 -106 31 -254v-524h-186v434q0 190 -17 260q-43 166 -211 166q-90 0 -164 -56t-102 -149q-17 -53 -20 -131q-2 -52 -2 -127v-397h-187z" />
<glyph unicode="i" horiz-adv-x="469" d="M129 1241v205h203v-205h-203zM141 0v1001h187v-1001h-187z" />
<glyph unicode="j" horiz-adv-x="508" d="M-37 -262q33 -4 49 -4q99 0 131 60q31 59 31 169v60v981h186v-981q0 -146 -20 -235.5t-78 -149.5q-63 -64 -190 -64q-43 0 -109 10v154zM166 1241v205h203v-205h-203z" />
<glyph unicode="k" horiz-adv-x="1061" d="M143 0v1475h187v-707q-6 -92 -6 -184q17 20 84 92l325 325h252l-467 -442l529 -559h-263l-338 369q-35 38 -65 80q-36 46 -57 67q2 -19 4 -75q0 -13 0.5 -29.5t1 -28t0.5 -18.5v-365h-187z" />
<glyph unicode="l" horiz-adv-x="469" d="M141 0v1475h187v-1475h-187z" />
<glyph unicode="m" horiz-adv-x="1729" d="M141 1001h172l11 -161q41 83 123.5 130.5t191.5 47.5q113 0 188.5 -51.5t106.5 -149.5q100 201 330 201q202 0 278 -149q57 -112 57 -343v-526h-186v489q0 179 -16 234q-39 137 -172 137q-82 0 -146 -56t-90 -151q-11 -36 -14 -83q-4 -43 -4 -146v-424h-187v514 q0 92 -2 142q-3 38 -12 69q-19 64 -62.5 99.5t-103.5 35.5h-4q-110 0 -186 -98q-75 -97 -74 -240v-8v-72v-442h-186v563q0 273 -13 438z" />
<glyph unicode="n" horiz-adv-x="1169" d="M141 1001h174l9 -159q114 176 344 176q234 0 314 -167q34 -72 46 -159.5t12 -226.5v-465h-184v451q0 109 -3 158q-5 53 -13 87q-21 80 -76 122t-137 42q-93 0 -164.5 -55t-100.5 -150q-20 -59 -21 -141q-1 -28 -1 -147v-367h-186v494q-1 82 -3 157q-1 68 -3 169 q-4 118 -7 181z" />
<glyph unicode="o" horiz-adv-x="1186" d="M80 498v9q0 223 144 371q147 150 365 150h3h8q140 0 256 -66q120 -68 186 -192q65 -119 64 -263v-9v-13q0 -141 -64 -257q-66 -122 -186 -190q-116 -66 -258 -65h-8q-146 0 -262 67.5t-182 189.5t-66 268zM276 500v-7q0 -159 90 -266q89 -106 221 -106h7h9q127 0 216 105 q90 107 90 261v7q1 168 -89 278q-88 109 -221 109h-5q-137 0 -227 -108q-91 -107 -91 -273z" />
<glyph unicode="p" horiz-adv-x="1190" d="M143 1001h176l11 -176q58 94 147 143.5t201 49.5h8q188 0 306 -138q119 -140 118 -366v-8q0 -228 -120 -374q-119 -146 -311 -146h-5q-123 0 -206 48t-138 148q12 -94 12 -192v-408h-186v981q0 237 -13 438zM342 500v-7q0 -142 85 -246q84 -102 199 -102h9q120 0 200 101 q78 100 78 256q0 161 -74.5 259.5t-199.5 98.5h-5q-122 0 -208 -104q-84 -102 -84 -246v-10z" />
<glyph unicode="q" horiz-adv-x="1184" d="M80 496v7q0 228 122 372q122 143 312 143h8q121 0 211 -54t133 -153q-6 27 -6 59q0 84 -4 119v12h180v-1419h-184v434q0 112 10 158q-113 -188 -346 -188h-5q-194 0 -313 140q-118 138 -118 359v11zM276 500q0 -157 79 -255q79 -100 204 -100h5q119 0 202 101 q82 100 82 244v10v10q0 144 -82 246q-82 104 -197 104h-6h-5q-119 0 -201 -103q-81 -101 -81 -247v-10z" />
<glyph unicode="r" horiz-adv-x="737" d="M143 1001h172l9 -178q92 191 286 191q52 0 101 -13v-170q-49 17 -88 17h-4q-68 0 -123 -32q-56 -33 -89.5 -89t-50.5 -123q-16 -63 -16 -131v-8v-72v-393h-184v610q0 157 -13 391z" />
<glyph unicode="s" horiz-adv-x="774" d="M72 727q0 131 95.5 211t252.5 80q110 0 233 -41l-14 -156q-97 49 -203 49q-77 0 -122.5 -34t-45.5 -91t45 -89q41 -29 161 -88q116 -59 175 -119q60 -61 60 -162v-8q-1 -131 -101 -213q-101 -84 -257 -84h-7q-138 0 -260 57v166q135 -66 235 -66q83 0 138 37.5t55 93.5 q0 57 -47 89q-53 35 -161 91q-113 58 -173 121q-59 62 -59 156z" />
<glyph unicode="t" horiz-adv-x="752" d="M-6 852v145h231v230l185 63v-293h266v-145h-266v-393q0 -135 12 -197q9 -54 49.5 -85.5t103.5 -31.5q59 0 121 31v-160q-87 -28 -172 -28q-240 0 -280 192q-19 83 -19 223v449h-231z" />
<glyph unicode="u" horiz-adv-x="1159" d="M129 469v530h186v-464q0 -55 3 -114q1 -50 7 -92q4 -32 15 -61q55 -135 197 -135q128 0 205 99t77 262v67v438h185v-630q0 -72 14 -369h-172l-8 156q-122 -170 -338 -170q-209 0 -290 130t-81 353z" />
<glyph unicode="v" horiz-adv-x="967" d="M12 1001h201l205 -577q10 -30 24.5 -71t22 -62.5t15.5 -53t12 -63.5q11 69 43 160l235 667h184l-360 -1001h-213z" />
<glyph unicode="w" horiz-adv-x="1622" d="M12 1001h203l164 -538q50 -144 76 -295q1 2 19 85q16 80 38 124l197 624h217l182 -550q19 -52 41 -135q21 -79 37 -148q9 75 40 182q1 4 31 107l168 544h185l-320 -1001h-215l-172 514q-33 104 -52 167q-14 46 -40 161q-37 -164 -90 -324l-166 -518h-213z" />
<glyph unicode="x" horiz-adv-x="973" d="M12 0l359 526l-332 475h227l164 -247q46 -74 66 -125q4 14 13 32t17 31.5t20 34t17 29.5l156 245h205l-320 -475l357 -526h-230l-186 289q-46 69 -66 121q-14 -38 -35 -73q-2 -4 -12 -20t-14 -24l-189 -293h-217z" />
<glyph unicode="y" horiz-adv-x="965" d="M12 1001h201l223 -632q46 -134 53 -207q11 64 43 160l236 679h184l-356 -991q-52 -146 -94 -234q-38 -77 -116 -140q-76 -60 -198 -60q-49 0 -114 16l10 150q48 -18 88 -18q90 0 142 66q54 67 83 169z" />
<glyph unicode="z" horiz-adv-x="973" d="M74 0v152l473 581q39 48 112 125q-41 -4 -141 -4h-422v147h768v-157l-483 -588q-34 -37 -57 -65q-21 -24 -48 -54q38 8 70 8h88h453v-145h-813z" />
<glyph unicode="{" horiz-adv-x="1010" d="M281 463v131q60 16 87 60.5t27 127.5v408q0 227 169 267q79 18 202 18v-134q-125 -1 -159 -30.5t-36 -136.5v-402q0 -102 -24.5 -152t-93.5 -92q67 -39 93 -92q25 -53 25 -155v-396q2 -58 11 -90.5t33 -50.5t56.5 -23.5t94.5 -5.5v-133q-99 0 -160 11t-109 41 q-102 63 -102 247v389q0 91 -25.5 134.5t-88.5 58.5z" />
<glyph unicode="|" horiz-adv-x="1024" d="M420 -342v1706h184v-1706h-184z" />
<glyph unicode="}" horiz-adv-x="1010" d="M244 -285q44 1 72 3t51 9.5t35 18t20.5 30.5t11.5 44t4 63v402q0 101 25 152q25 52 94 91q-67 40 -93 94t-26 154v395q0 103 -37 137q-37 33 -141 33h-16v134q106 0 166.5 -9t105.5 -36q98 -58 98 -254v-390q0 -88 26 -132.5t89 -59.5v-131q-61 -16 -88 -60.5t-27 -128.5 v-407q0 -225 -167 -266q-75 -19 -203 -19v133z" />
<glyph unicode="~" horiz-adv-x="1024" d="M18 600q64 139 127 192.5t162 57.5q51 0 97 -15q52 -18 120 -49q66 -31 114 -47q42 -14 87 -14q57 0 94 28q35 25 80 101l109 -63q-118 -244 -308 -244q-48 -2 -125.5 30.5t-155.5 65t-126 29.5q-51 0 -89 -32t-79 -110z" />
<glyph unicode="&#xa1;" horiz-adv-x="801" d="M242 -365l32 986h168l25 -986h-225zM252 791v210h211v-210h-211z" />
<glyph unicode="&#xa2;" d="M186 694q-3 207 122.5 348t330.5 162v158h104v-158q66 -8 102 -15q30 -7 73 -22l-13 -163q-74 37 -162 43v-705q58 5 92 16q33 10 91 43l16 -168q-97 -43 -199 -51v-162h-104v162q-207 21 -331.5 161t-121.5 351zM385 700q0 -136 67 -227t187 -123v688 q-122 -34 -188 -121.5t-66 -216.5z" />
<glyph unicode="&#xa3;" d="M125 0v162h182v504h-164v106h162v47q0 159 17 237.5t67 147.5q60 83 157.5 127.5t219.5 44.5q128 0 240 -39l-17 -170q-123 50 -203 50q-122 0 -196 -73q-76 -73 -88 -198q-6 -57 -6 -174h317v-106h-313v-504h483v-162h-858z" />
<glyph unicode="&#xa4;" d="M63 993l89 88l161 -161q109 79 236 79q120 0 233 -77l162 157l86 -86l-160 -159q80 -113 80 -232q0 -118 -78 -229l162 -160l-88 -88l-160 160q-112 -80 -235 -80q-118 0 -236 80l-161 -160l-86 88l157 160q-78 107 -78 231q0 118 80 227zM293 602q-2 -103 75.5 -180.5 t180.5 -75.5q103 -2 180.5 75.5t75.5 180.5q2 103 -75.5 180.5t-180.5 75.5q-103 2 -180.5 -75.5t-75.5 -180.5z" />
<glyph unicode="&#xa5;" d="M8 1366h242l262 -512q25 -49 43 -102q17 52 39 96l262 518h234l-267 -479h203v-107h-264l-92 -168h336v-106h-357v-506h-192v506h-365v106h342l-94 168h-268v107h207z" />
<glyph unicode="&#xa6;" horiz-adv-x="1024" d="M420 313h184v-655h-184v655zM420 674v690h184v-690h-184z" />
<glyph unicode="&#xa7;" d="M109 559q0 105 53 182t149 111q-92 50 -139 118t-47 165q-4 155 130.5 256.5t338.5 99.5q163 0 307 -41l-18 -172q-152 57 -293 57q-131 0 -208 -52q-79 -52 -79 -142q0 -93 75 -140q70 -46 253 -121q176 -73 270 -151q90 -78 90 -213q0 -191 -205 -295q181 -88 181 -274 q4 -170 -142.5 -278t-375.5 -105q-181 0 -334 53l16 180q168 -71 328 -71q147 0 230 54.5t83 151.5q0 102 -79 153q-83 53 -245 119q-169 69 -253 142q-86 75 -86 213zM260 598q0 -67 39.5 -114.5t132.5 -92.5q66 -32 287 -117q60 50 85 96t25 107q0 93 -67 145 q-63 49 -184 101l-199 88q-64 -56 -91.5 -106t-27.5 -107z" />
<glyph unicode="&#xa8;" horiz-adv-x="1024" d="M236 1243v199h178v-199h-178zM608 1243v199h178v-199h-178z" />
<glyph unicode="&#xa9;" horiz-adv-x="1608" d="M98 682q0 192 96 355q94 163 258 259q164 95 355 95q188 0 351 -95q163 -97 257 -259q94 -163 94 -355q0 -191 -94 -354q-95 -165 -257 -259q-164 -96 -353 -96q-191 0 -353 96q-163 94 -258 259q-96 164 -96 354zM209 682q0 -162 80 -302q79 -140 218 -223 q137 -83 298 -83t298 82q139 84 217 221q79 139 79 305t-79 305t-215 221t-298 82q-159 4 -298.5 -79.5t-221 -225.5t-78.5 -303zM416 686q-2 112 54.5 202t158 140t225.5 49q113 0 197 -37l-13 -120q-94 49 -178 49q-131 2 -218 -78.5t-85 -202.5q-2 -123 88 -206t221 -81 q82 0 183 37l8 -125q-90 -26 -189 -26q-204 -2 -330 108t-122 291z" />
<glyph unicode="&#xaa;" horiz-adv-x="727" d="M86 952q0 96 88 148.5t248 52.5q28 0 82 -2q-3 131 -150 131q-95 0 -192 -63l-6 114q100 58 217 58q146 0 204 -70t58 -219q0 -26 -2 -80q0 -160 8 -248h-123q-2 36 -2 82q-74 -90 -203 -90q-102 0 -164 52q-63 51 -63 134zM106 573v97h535v-97h-535zM225 952 q0 -36 32 -60t83 -24q79 0 122.5 51t43.5 136q-28 2 -53 2q-228 0 -228 -105z" />
<glyph unicode="&#xab;" horiz-adv-x="1096" d="M111 506l274 397h178l-254 -397l258 -406h-174zM508 506l274 397h179l-254 -397l258 -406h-174z" />
<glyph unicode="&#xac;" horiz-adv-x="1024" d="M68 375v172h886v-547h-184v375h-702z" />
<glyph unicode="&#xad;" horiz-adv-x="514" d="M0 428v154h514v-154h-514z" />
<glyph unicode="&#xae;" horiz-adv-x="1608" d="M98 682q0 192 96 355q94 163 258 259q164 95 355 95q188 0 351 -95q163 -97 257 -259q94 -163 94 -355q0 -191 -94 -354q-95 -165 -257 -259q-164 -96 -353 -96q-191 0 -353 96q-163 94 -258 259q-96 164 -96 354zM209 682q0 -162 80 -302q79 -140 218 -223 q137 -83 298 -83t298 82q139 84 217 221q79 139 79 305t-79 305t-215 221t-298 82q-159 4 -298.5 -79.5t-221 -225.5t-78.5 -303zM543 291v782h205q143 0 236 -42t93 -169q0 -68 -39.5 -115t-115.5 -67q48 -28 82 -98l145 -291h-154l-106 235q-35 71 -60 88t-94 19h-59v-342 h-133zM676 743h65q106 0 152.5 25.5t46.5 85.5q0 58 -44 83.5t-144 25.5h-76v-220z" />
<glyph unicode="&#xaf;" horiz-adv-x="1024" d="M172 1286v115h678v-115h-678z" />
<glyph unicode="&#xb0;" horiz-adv-x="768" d="M86 1202q-2 116 88 205.5t209 85.5q125 0 212 -86t87 -205q2 -118 -87.5 -207.5t-211.5 -85.5q-119 -4 -209 85.5t-88 207.5zM203 1202q0 -74 53.5 -127t126.5 -53q74 0 128 52.5t54 125.5q0 74 -54 127t-128 53q-73 0 -126.5 -53t-53.5 -125z" />
<glyph unicode="&#xb1;" d="M78 117v149h942v-149h-942zM78 745v150h395v383h152v-383h395v-150h-395v-383h-152v383h-395z" />
<glyph unicode="&#xb2;" horiz-adv-x="727" d="M96 543v145q140 118 245 233q110 122 110 216q0 46 -37 76t-95 30q-81 0 -190 -65l-16 143q71 31 117 42q49 11 108 11q121 0 194.5 -64.5t73.5 -168.5q0 -83 -51 -168q-50 -84 -116 -153q-59 -60 -158 -148h22h320v-129h-527z" />
<glyph unicode="&#xb3;" horiz-adv-x="727" d="M94 569l8 146q123 -53 203 -53q67 0 109.5 33t42.5 85q0 125 -205 125q-17 0 -55 -2v133h45q102 0 156.5 29.5t54.5 85.5q0 45 -37.5 72.5t-98.5 27.5q-87 0 -190 -51l-10 135q102 39 209 39q131 0 204.5 -59t73.5 -164q0 -120 -123 -180q68 -33 99.5 -81.5t31.5 -119.5 q0 -108 -82 -173t-219 -65q-102 0 -217 37z" />
<glyph unicode="&#xb4;" horiz-adv-x="1024" d="M397 1202l162 281h205l-236 -281h-131z" />
<glyph unicode="&#xb5;" horiz-adv-x="1098" d="M121 -346v1329h184v-532q0 -108 16 -163q17 -58 58 -102q72 -69 168 -69q66 0 115.5 29.5t77.5 81t41.5 111.5t13.5 128v516h184v-983h-184v158q-46 -95 -105.5 -138t-146.5 -43q-78 0 -133 33t-105 109v-465h-184z" />
<glyph unicode="&#xb6;" d="M45 981q0 131 57 219t153 127t228 39h543v-143h-104v-1641h-158v1641h-180v-1641h-160v1026q-16 -2 -27 -2q-153 -3 -253.5 105t-98.5 270z" />
<glyph unicode="&#xb8;" horiz-adv-x="1024" d="M436 -385l35 74q60 -27 133 -27q50 0 78.5 20.5t28.5 55.5q0 34 -27.5 56t-69.5 22q-26 0 -75 -15l-33 33l121 166h86l-86 -117q56 8 73 8q71 0 116.5 -40t45.5 -101q0 -78 -65.5 -127t-169.5 -49q-100 0 -191 41z" />
<glyph unicode="&#xb9;" horiz-adv-x="727" d="M147 1188l207 176h125v-821h-145v495v140l-103 -93z" />
<glyph unicode="&#xba;" horiz-adv-x="834" d="M86 1071q-3 138 93 230t237 90q146 0 239 -89t93 -231q0 -139 -93 -228t-239 -89q-140 -2 -236.5 89.5t-93.5 227.5zM106 573v97h621v-97h-621zM225 1071q0 -95 54 -155t139 -60q83 0 136.5 60t53.5 153q0 95 -54 157t-136 62q-86 0 -139 -60q-54 -62 -54 -157z" />
<glyph unicode="&#xbb;" horiz-adv-x="1096" d="M131 100l258 406l-254 397h178l275 -397l-283 -406h-174zM528 100l260 406l-253 397h176l274 -397l-280 -406h-177z" />
<glyph unicode="&#xbc;" horiz-adv-x="1765" d="M147 1190l207 176h125v-823h-145v495v140l-103 -91zM449 -66l745 1498h121l-748 -1498h-118zM1098 172v115l319 534h187v-520h102v-129h-102v-172h-146v172h-360zM1260 301h198l4 293q2 9 2.5 22.5l1 27t0.5 18.5q-27 -51 -67 -116q-17 -28 -46 -77.5t-40 -67.5 q-40 -68 -51 -98z" />
<glyph unicode="&#xbd;" horiz-adv-x="1765" d="M147 1190l207 176h125v-823h-145v495v140l-103 -91zM449 -66l745 1498h121l-748 -1498h-118zM1133 0v145q185 162 270.5 269.5t85.5 177.5q0 47 -37.5 77.5t-95.5 30.5q-82 0 -191 -65l-16 143q70 31 119 42q50 11 106 11q121 0 196 -64.5t75 -168.5q0 -118 -92 -231 q-90 -111 -236 -238h24h320v-129h-528z" />
<glyph unicode="&#xbe;" horiz-adv-x="1765" d="M96 569l8 146q76 -32 118 -42q44 -11 85 -11q67 0 109.5 33t42.5 85q0 125 -205 125q-17 0 -55 -2v133h45q102 0 156.5 29.5t54.5 85.5q0 45 -37.5 72.5t-98.5 27.5q-87 0 -190 -51l-10 135q102 39 209 39q131 0 204.5 -59t73.5 -164q0 -120 -123 -180q68 -33 99.5 -81.5 t31.5 -119.5q0 -108 -82 -173t-219 -65q-102 0 -217 37zM451 -66l745 1498h121l-748 -1498h-118zM1100 172v115l319 534h187v-520h102v-129h-102v-172h-146v172h-360zM1262 301h198l4 293q2 46 2 68q-13 -28 -53 -95q-35 -59 -57 -96q-33 -55 -53 -91q-29 -53 -39 -77z" />
<glyph unicode="&#xbf;" horiz-adv-x="1042" d="M92 -35q0 89 40 166t153 207q78 91 98 139t20 141h179q0 -117 -23 -183.5t-90 -145.5q-4 -5 -23 -25.5t-32 -36.5q-36 -41 -60 -75q-57 -84 -57 -164q0 -94 64.5 -147.5t177.5 -53.5q134 0 290 74l15 -189q-171 -59 -334 -59q-183 -1 -301.5 99.5t-116.5 252.5zM387 786 v213h209v-213h-209z" />
<glyph unicode="&#xc0;" horiz-adv-x="1399" d="M10 0l582 1366h205l592 -1366h-220l-143 346h-664l-141 -346h-211zM424 512h534l-157 381q-54 127 -70 172q-23 64 -41 133q-13 -48 -35 -109q-7 -17 -80 -200zM449 1792h204l162 -281h-131z" />
<glyph unicode="&#xc1;" horiz-adv-x="1399" d="M10 0l582 1366h205l592 -1366h-220l-143 346h-664l-141 -346h-211zM424 512h534l-157 381q-54 127 -70 172q-23 64 -41 133q-13 -48 -35 -109q-7 -17 -80 -200zM586 1511l162 281h204l-235 -281h-131z" />
<glyph unicode="&#xc2;" horiz-adv-x="1399" d="M10 0l582 1366h205l592 -1366h-220l-143 346h-664l-141 -346h-211zM401 1511l205 281h182l207 -281h-170l-133 189l-139 -189h-152zM424 512h534l-157 381q-54 127 -70 172q-23 64 -41 133q-13 -48 -35 -109q-7 -17 -80 -200z" />
<glyph unicode="&#xc3;" horiz-adv-x="1399" d="M10 0l582 1366h205l592 -1366h-220l-143 346h-664l-141 -346h-211zM365 1536q15 104 67.5 158.5t138.5 54.5q58 0 151 -41q46 -20 69 -27q24 -8 51 -8q41 0 62.5 19.5t35.5 70.5h96q-14 -100 -66.5 -157.5t-127.5 -57.5q-52 0 -156 44q-81 34 -131 34q-35 0 -58 -21.5 t-38 -68.5h-94zM424 512h534l-157 381q-54 127 -70 172q-23 64 -41 133q-13 -48 -35 -109q-7 -17 -80 -200z" />
<glyph unicode="&#xc4;" horiz-adv-x="1399" d="M10 0l582 1366h205l592 -1366h-220l-143 346h-664l-141 -346h-211zM424 512h534l-157 381q-54 127 -70 172q-23 64 -41 133q-13 -48 -35 -109q-7 -17 -80 -200zM426 1550v199h178v-199h-178zM799 1550v199h178v-199h-178z" />
<glyph unicode="&#xc5;" horiz-adv-x="1399" d="M10 0l582 1366h205l592 -1366h-220l-143 346h-664l-141 -346h-211zM424 512h534l-157 381q-54 127 -70 172q-23 64 -41 133q-13 -48 -35 -109q-7 -17 -80 -200zM500 1649q0 80 59 139t139 59q78 2 139.5 -59t59.5 -139q0 -82 -59 -141q-58 -58 -140 -58q-80 0 -139 59 t-59 140zM600 1649q0 -40 29.5 -69.5t68.5 -29.5q40 0 69.5 29t29.5 70q0 40 -29 69t-70 29q-40 0 -69 -29t-29 -69z" />
<glyph unicode="&#xc6;" horiz-adv-x="1847" d="M12 0l824 1366h860v-168h-549l31 -410h485v-167h-473l31 -455h499v-166h-680l-26 350h-576l-207 -350h-219zM532 516h469l-45 707z" />
<glyph unicode="&#xc7;" horiz-adv-x="1196" d="M102 690q0 150 53 277.5t147 217.5t228.5 140.5t292.5 50.5q175 0 307 -61l-16 -185q-77 42 -139 59q-65 17 -144 17q-229 3 -377 -142.5t-145 -371.5q-5 -221 151.5 -376.5t381.5 -151.5q121 0 288 61l15 -188q-141 -47 -291 -47q-28 0 -66 2l-79 -109q57 11 75 11 q71 0 115.5 -39.5t44.5 -102.5q0 -78 -66.5 -127t-170.5 -49q-93 0 -187 39l35 74q69 -29 133 -29q49 0 78 21t29 57q0 34 -26.5 56t-68.5 22q-32 0 -79 -15l-31 35l119 162q-121 17 -197 47q-80 32 -154 88q-123 98 -189.5 242t-66.5 315z" />
<glyph unicode="&#xc8;" horiz-adv-x="1079" d="M176 0v1366h760v-168h-565v-401h524v-168h-524v-463h581v-166h-776zM289 1792h205l161 -281h-131z" />
<glyph unicode="&#xc9;" horiz-adv-x="1079" d="M176 0v1366h760v-168h-565v-401h524v-168h-524v-463h581v-166h-776zM426 1511l162 281h205l-236 -281h-131z" />
<glyph unicode="&#xca;" horiz-adv-x="1079" d="M176 0v1366h760v-168h-565v-401h524v-168h-524v-463h581v-166h-776zM242 1511l204 281h183l207 -281h-170l-134 189l-139 -189h-151z" />
<glyph unicode="&#xcb;" horiz-adv-x="1079" d="M176 0v1366h760v-168h-565v-401h524v-168h-524v-463h581v-166h-776zM266 1550v199h178v-199h-178zM639 1550v199h178v-199h-178z" />
<glyph unicode="&#xcc;" horiz-adv-x="573" d="M35 1792h205l161 -281h-131zM188 0v1366h195v-1366h-195z" />
<glyph unicode="&#xcd;" horiz-adv-x="573" d="M172 1511l162 281h205l-236 -281h-131zM188 0v1366h195v-1366h-195z" />
<glyph unicode="&#xce;" horiz-adv-x="573" d="M-12 1511l205 281h182l207 -281h-170l-133 189l-140 -189h-151zM188 0v1366h195v-1366h-195z" />
<glyph unicode="&#xcf;" horiz-adv-x="573" d="M10 1550v199h178v-199h-178zM188 0v1366h195v-1366h-195zM383 1550v199h178v-199h-178z" />
<glyph unicode="&#xd0;" horiz-adv-x="1411" d="M39 629v164h137v573h281q148 0 229 -10q180 -18 324 -110.5t223.5 -241.5t77.5 -326q2 -220 -123 -392.5t-334 -240.5q-77 -26 -156 -35.5t-213 -9.5h-309v629h-137zM369 168h100q135 0 205 10q73 9 143 39q135 57 212 182t77 285q0 164 -90 297q-89 132 -236 182 q-92 35 -309 35h-102v-405h340v-164h-340v-461z" />
<glyph unicode="&#xd1;" horiz-adv-x="1444" d="M176 0v1366h266l465 -805q140 -243 189 -391q-13 136 -15 184q-2 106 -3 158q0 21 -0.5 44t-1 35.5t-0.5 18.5q-1 13 -1 99v657h193v-1366h-252l-432 741q-105 185 -154 281q-43 82 -76 188q17 -232 17 -516v-694h-195zM387 1536q31 213 207 213q54 0 153 -42 q49 -21 69 -27q18 -7 48 -7q41 0 62.5 20.5t36.5 69.5h96q-13 -99 -66 -157t-129 -58q-51 0 -154 44q-84 34 -132 34q-36 0 -58 -20.5t-39 -69.5h-94z" />
<glyph unicode="&#xd2;" horiz-adv-x="1518" d="M98 682q0 312 172 507q85 97 210 149.5t276 52.5q152 1 278 -51.5t210.5 -147t130.5 -226t44 -284.5q0 -326 -177.5 -517.5t-479.5 -191.5q-151 -2 -277.5 51.5t-211 149t-131 226.5t-44.5 282zM307 684q0 -119 33 -224t94 -179q125 -154 326 -154q128 -1 232 69.5 t162 197t56 282.5q0 254 -125.5 407.5t-330.5 153.5q-129 2 -232.5 -68.5t-160 -198t-54.5 -286.5zM508 1790h205l161 -281h-131z" />
<glyph unicode="&#xd3;" horiz-adv-x="1518" d="M98 682q0 312 172 507q85 97 210 149.5t276 52.5q152 1 278 -51.5t210.5 -147t130.5 -226t44 -284.5q0 -326 -177.5 -517.5t-479.5 -191.5q-151 -2 -277.5 51.5t-211 149t-131 226.5t-44.5 282zM307 684q0 -119 33 -224t94 -179q125 -154 326 -154q128 -1 232 69.5 t162 197t56 282.5q0 254 -125.5 407.5t-330.5 153.5q-129 2 -232.5 -68.5t-160 -198t-54.5 -286.5zM645 1509l162 281h205l-236 -281h-131z" />
<glyph unicode="&#xd4;" horiz-adv-x="1518" d="M98 682q0 312 172 507q85 97 210 149.5t276 52.5q152 1 278 -51.5t210.5 -147t130.5 -226t44 -284.5q0 -326 -177.5 -517.5t-479.5 -191.5q-151 -2 -277.5 51.5t-211 149t-131 226.5t-44.5 282zM307 684q0 -119 33 -224t94 -179q125 -154 326 -154q128 -1 232 69.5 t162 197t56 282.5q0 254 -125.5 407.5t-330.5 153.5q-129 2 -232.5 -68.5t-160 -198t-54.5 -286.5zM461 1509l205 281h182l207 -281h-170l-133 189l-140 -189h-151z" />
<glyph unicode="&#xd5;" horiz-adv-x="1518" d="M98 682q0 312 172 507q85 97 210 149.5t276 52.5q152 1 278 -51.5t210.5 -147t130.5 -226t44 -284.5q0 -326 -177.5 -517.5t-479.5 -191.5q-151 -2 -277.5 51.5t-211 149t-131 226.5t-44.5 282zM307 684q0 -119 33 -224t94 -179q125 -154 326 -154q128 -1 232 69.5 t162 197t56 282.5q0 254 -125.5 407.5t-330.5 153.5q-129 2 -232.5 -68.5t-160 -198t-54.5 -286.5zM422 1536q15 104 67.5 158.5t139.5 54.5q54 0 153 -42q50 -21 69 -27q18 -7 48 -7q41 0 62.5 19.5t35.5 70.5h97q-13 -98 -66.5 -156.5t-128.5 -58.5q-48 0 -157 45 q-84 33 -130 33q-35 0 -57 -20.5t-39 -69.5h-94z" />
<glyph unicode="&#xd6;" horiz-adv-x="1518" d="M98 682q0 312 172 507q85 97 210 149.5t276 52.5q152 1 278 -51.5t210.5 -147t130.5 -226t44 -284.5q0 -326 -177.5 -517.5t-479.5 -191.5q-151 -2 -277.5 51.5t-211 149t-131 226.5t-44.5 282zM307 684q0 -119 33 -224t94 -179q125 -154 326 -154q128 -1 232 69.5 t162 197t56 282.5q0 254 -125.5 407.5t-330.5 153.5q-129 2 -232.5 -68.5t-160 -198t-54.5 -286.5zM483 1550v199h179v-199h-179zM856 1550v199h178v-199h-178z" />
<glyph unicode="&#xd7;" d="M145 397l299 299l-299 299l107 107l299 -299l299 299l106 -107l-299 -299l299 -299l-106 -106l-299 299l-299 -299z" />
<glyph unicode="&#xd8;" horiz-adv-x="1518" d="M98 682q-2 202 76.5 363.5t230 255t349.5 90.5q220 0 374 -95l121 160l109 -84l-125 -164q90 -99 138 -233.5t48 -290.5q0 -326 -177.5 -518.5t-477.5 -192.5q-231 0 -389 109l-127 -164l-107 84l131 172q-82 100 -128 232t-46 276zM307 684q0 -190 90 -352l615 825 q-104 80 -254 80q-201 0 -326 -152t-125 -401zM492 223q122 -94 268 -94q197 -2 325 153t125 396q0 216 -102 377z" />
<glyph unicode="&#xd9;" horiz-adv-x="1409" d="M176 621v743h195v-715q0 -144 10 -214q9 -73 39 -132q39 -77 117.5 -120.5t175.5 -43.5q156 0 234.5 99t88.5 266q2 34 2 137v723h195v-768q0 -155 -17 -245q-18 -88 -63 -158q-68 -108 -182 -164t-264 -56q-171 0 -295 72.5t-183 206.5q-53 120 -53 369zM455 1790h204 l162 -281h-131z" />
<glyph unicode="&#xda;" horiz-adv-x="1409" d="M176 621v743h195v-715q0 -144 10 -214q9 -73 39 -132q39 -77 117.5 -120.5t175.5 -43.5q156 0 234.5 99t88.5 266q2 34 2 137v723h195v-768q0 -155 -17 -245q-18 -88 -63 -158q-68 -108 -182 -164t-264 -56q-171 0 -295 72.5t-183 206.5q-53 120 -53 369zM590 1509 l162 281h204l-235 -281h-131z" />
<glyph unicode="&#xdb;" horiz-adv-x="1409" d="M176 621v743h195v-715q0 -144 10 -214q9 -73 39 -132q39 -77 117.5 -120.5t175.5 -43.5q156 0 234.5 99t88.5 266q2 34 2 137v723h195v-768q0 -155 -17 -245q-18 -88 -63 -158q-68 -108 -182 -164t-264 -56q-171 0 -295 72.5t-183 206.5q-53 120 -53 369zM406 1509 l204 281h183l206 -281h-170l-133 189l-139 -189h-151z" />
<glyph unicode="&#xdc;" horiz-adv-x="1409" d="M176 621v743h195v-715q0 -144 10 -214q9 -73 39 -132q39 -77 117.5 -120.5t175.5 -43.5q156 0 234.5 99t88.5 266q2 34 2 137v723h195v-768q0 -155 -17 -245q-18 -88 -63 -158q-68 -108 -182 -164t-264 -56q-171 0 -295 72.5t-183 206.5q-53 120 -53 369zM430 1550v199 h178v-199h-178zM803 1550v199h178v-199h-178z" />
<glyph unicode="&#xdd;" horiz-adv-x="1288" d="M10 1366h242l338 -512q42 -64 59 -102q27 52 56 96l342 518h231l-533 -786v-580h-194v573zM530 1511l162 281h205l-235 -281h-132z" />
<glyph unicode="&#xde;" horiz-adv-x="1092" d="M176 0v1366h197v-192h76q139 0 217 -8q72 -7 129 -29q115 -43 181 -141t66 -228t-63.5 -228.5t-177.5 -144.5q-106 -41 -320 -41h-108v-354h-197zM373 522h106q159 0 259 51t100 193q0 104 -70 166.5t-195 71.5q-101 6 -200 6v-488z" />
<glyph unicode="&#xdf;" horiz-adv-x="1182" d="M141 0v811v76q0 151 16 237q15 88 54 156q56 97 158 152t233 55q185 0 299.5 -108t114.5 -285q0 -114 -61 -196t-173 -120q131 -6 218 -110.5t87 -261.5q1 -193 -126 -306.5t-324 -113.5q-56 0 -170 14v164q80 -31 149 -31q123 0 198 78t75 201q0 286 -371 286v150 q140 0 220 58q81 58 81 190q0 107 -62 175q-63 68 -163 68q-136 0 -194 -97q-60 -99 -70 -249q-2 -58 -2 -166v-827h-187z" />
<glyph unicode="&#xe0;" horiz-adv-x="1083" d="M88 287q0 158 135.5 242.5t388.5 84.5q83 0 140 -4q-2 129 -63 189.5t-187 60.5q-81 0 -149 -22.5t-146 -73.5l-10 162q157 92 335 92q141 0 236.5 -53.5t132.5 -151.5q31 -81 31 -278v-195q0 -230 10 -340h-170q-2 46 -2 78q0 40 2 94q-58 -97 -138 -141.5t-198 -44.5 q-156 -2 -253 82t-95 219zM285 289q0 -69 53.5 -112.5t138.5 -43.5q279 0 279 340q-62 6 -101 6q-370 0 -370 -190zM289 1483h205l161 -281h-131z" />
<glyph unicode="&#xe1;" horiz-adv-x="1083" d="M88 287q0 158 135.5 242.5t388.5 84.5q83 0 140 -4q-2 129 -63 189.5t-187 60.5q-81 0 -149 -22.5t-146 -73.5l-10 162q157 92 335 92q141 0 236.5 -53.5t132.5 -151.5q31 -81 31 -278v-195q0 -230 10 -340h-170q-2 46 -2 78q0 40 2 94q-58 -97 -138 -141.5t-198 -44.5 q-156 -2 -253 82t-95 219zM285 289q0 -69 53.5 -112.5t138.5 -43.5q279 0 279 340q-62 6 -101 6q-370 0 -370 -190zM426 1202l162 281h205l-236 -281h-131z" />
<glyph unicode="&#xe2;" horiz-adv-x="1083" d="M88 287q0 158 135.5 242.5t388.5 84.5q83 0 140 -4q-2 129 -63 189.5t-187 60.5q-81 0 -149 -22.5t-146 -73.5l-10 162q157 92 335 92q141 0 236.5 -53.5t132.5 -151.5q31 -81 31 -278v-195q0 -230 10 -340h-170q-2 46 -2 78q0 40 2 94q-58 -97 -138 -141.5t-198 -44.5 q-156 -2 -253 82t-95 219zM244 1202l205 281h182l207 -281h-170l-133 189l-140 -189h-151zM285 289q0 -69 53.5 -112.5t138.5 -43.5q279 0 279 340q-62 6 -101 6q-370 0 -370 -190z" />
<glyph unicode="&#xe3;" horiz-adv-x="1083" d="M88 287q0 158 135.5 242.5t388.5 84.5q83 0 140 -4q-2 129 -63 189.5t-187 60.5q-81 0 -149 -22.5t-146 -73.5l-10 162q157 92 335 92q141 0 236.5 -53.5t132.5 -151.5q31 -81 31 -278v-195q0 -230 10 -340h-170q-2 46 -2 78q0 40 2 94q-58 -97 -138 -141.5t-198 -44.5 q-156 -2 -253 82t-95 219zM205 1229q15 104 67.5 158.5t139.5 54.5q54 0 153 -42q49 -21 69 -27q18 -7 48 -7q41 0 62.5 19.5t35.5 70.5h97q-13 -98 -66.5 -156.5t-128.5 -58.5q-31 0 -76 15q-34 11 -80 29q-81 34 -131 34q-35 0 -58 -21.5t-38 -68.5h-94zM285 289 q0 -69 53.5 -112.5t138.5 -43.5q279 0 279 340q-62 6 -101 6q-370 0 -370 -190z" />
<glyph unicode="&#xe4;" horiz-adv-x="1083" d="M88 287q0 158 135.5 242.5t388.5 84.5q83 0 140 -4q-2 129 -63 189.5t-187 60.5q-81 0 -149 -22.5t-146 -73.5l-10 162q157 92 335 92q141 0 236.5 -53.5t132.5 -151.5q31 -81 31 -278v-195q0 -230 10 -340h-170q-2 46 -2 78q0 40 2 94q-58 -97 -138 -141.5t-198 -44.5 q-156 -2 -253 82t-95 219zM266 1243v199h178v-199h-178zM285 289q0 -69 53.5 -112.5t138.5 -43.5q279 0 279 340q-62 6 -101 6q-370 0 -370 -190zM639 1243v199h178v-199h-178z" />
<glyph unicode="&#xe5;" horiz-adv-x="1083" d="M88 287q0 158 135.5 242.5t388.5 84.5q83 0 140 -4q-2 129 -63 189.5t-187 60.5q-81 0 -149 -22.5t-146 -73.5l-10 162q157 92 335 92q141 0 236.5 -53.5t132.5 -151.5q31 -81 31 -278v-195q0 -230 10 -340h-170q-2 46 -2 78q0 40 2 94q-58 -97 -138 -141.5t-198 -44.5 q-156 -2 -253 82t-95 219zM285 289q0 -69 53.5 -112.5t138.5 -43.5q279 0 279 340q-62 6 -101 6q-370 0 -370 -190zM342 1343q0 82 58 140q59 59 141 59q78 2 139 -59.5t59 -139.5q0 -80 -59 -139t-139 -59q-81 0 -140 59t-59 139zM442 1343q0 -39 29.5 -68.5t69.5 -29.5 t69 29t29 69q0 41 -29 70t-69 29q-41 0 -70 -29t-29 -70z" />
<glyph unicode="&#xe6;" horiz-adv-x="1751" d="M88 291q0 196 189 273q144 57 370 57q3 0 135 -3q-3 121 -76.5 182.5t-203.5 61.5q-156 0 -295 -96v170q162 84 332 84q124 0 216 -46q92 -47 124 -124q39 81 130 125.5t214 44.5q129 0 227.5 -56.5t153.5 -160.5q37 -72 49.5 -140.5t15.5 -203.5h-708 q9 -151 101.5 -238.5t242.5 -87.5q66 0 126.5 19.5t137.5 64.5v-180q-133 -51 -295 -51q-66 0 -133 13t-130 39.5t-107.5 72.5t-55.5 106q-22 -103 -127 -167q-104 -64 -256 -64q-170 0 -273.5 83.5t-103.5 221.5zM285 291q0 -70 55 -113q56 -45 139 -45q125 -3 215 99 t88 241h-135q-142 0 -231 -27q-131 -41 -131 -155zM961 606h503q-9 131 -74 205t-171 74q-105 0 -176 -75q-70 -76 -82 -204z" />
<glyph unicode="&#xe7;" horiz-adv-x="874" d="M80 500q0 223 142.5 368.5t361.5 145.5q120 0 225 -41l-10 -164q-85 43 -181 43q-146 3 -245.5 -97.5t-96.5 -248.5q-2 -156 92 -258.5t240 -100.5q110 0 211 60l17 -168q-104 -53 -242 -53q-15 0 -37 2l-78 -105q53 8 78 8q69 0 115 -40q45 -40 45 -101q0 -78 -67 -127 t-173 -49q-99 0 -186 41l35 72q64 -27 131 -27q52 0 80 21.5t28 58.5q0 32 -26.5 54t-65.5 22q-31 0 -80 -15l-33 35l119 160q-190 43 -294.5 175t-104.5 329z" />
<glyph unicode="&#xe8;" horiz-adv-x="1069" d="M80 512q-4 228 129 373t342 143q96 1 171 -29.5t124 -83t81 -127.5t46 -157t14 -178h-721q20 -149 110 -235q89 -87 224 -87q154 0 313 94v-178q-169 -74 -321 -74q-232 -2 -372.5 147t-139.5 392zM268 598h533q-15 130 -77 206.5t-179 76.5q-110 0 -183.5 -75.5 t-93.5 -207.5zM283 1485h204l162 -281h-131z" />
<glyph unicode="&#xe9;" horiz-adv-x="1069" d="M80 512q-4 228 129 373t342 143q96 1 171 -29.5t124 -83t81 -127.5t46 -157t14 -178h-721q20 -149 110 -235q89 -87 224 -87q154 0 313 94v-178q-169 -74 -321 -74q-232 -2 -372.5 147t-139.5 392zM268 598h533q-15 130 -77 206.5t-179 76.5q-110 0 -183.5 -75.5 t-93.5 -207.5zM420 1204l162 281h204l-235 -281h-131z" />
<glyph unicode="&#xea;" horiz-adv-x="1069" d="M80 512q-4 228 129 373t342 143q96 1 171 -29.5t124 -83t81 -127.5t46 -157t14 -178h-721q20 -149 110 -235q89 -87 224 -87q154 0 313 94v-178q-169 -74 -321 -74q-232 -2 -372.5 147t-139.5 392zM236 1204l204 281h183l206 -281h-170l-133 189l-139 -189h-151zM268 598 h533q-15 130 -77 206.5t-179 76.5q-110 0 -183.5 -75.5t-93.5 -207.5z" />
<glyph unicode="&#xeb;" horiz-adv-x="1069" d="M80 512q-4 228 129 373t342 143q96 1 171 -29.5t124 -83t81 -127.5t46 -157t14 -178h-721q20 -149 110 -235q89 -87 224 -87q154 0 313 94v-178q-169 -74 -321 -74q-232 -2 -372.5 147t-139.5 392zM258 1245v199h178v-199h-178zM268 598h533q-15 130 -77 206.5t-179 76.5 q-110 0 -183.5 -75.5t-93.5 -207.5zM631 1245v199h178v-199h-178z" />
<glyph unicode="&#xec;" horiz-adv-x="469" d="M-16 1485h204l162 -281h-131zM141 0v1001h187v-1001h-187z" />
<glyph unicode="&#xed;" horiz-adv-x="469" d="M119 1204l162 281h204l-235 -281h-131zM141 0v1001h187v-1001h-187z" />
<glyph unicode="&#xee;" horiz-adv-x="469" d="M-63 1204l204 281h183l206 -281h-170l-133 189l-139 -189h-151zM141 0v1001h187v-1001h-187z" />
<glyph unicode="&#xef;" horiz-adv-x="469" d="M-41 1243v199h178v-199h-178zM141 0v1001h187v-1001h-187zM332 1243v199h178v-199h-178z" />
<glyph unicode="&#xf0;" horiz-adv-x="1188" d="M80 496q-2 111 37 210.5t107.5 171t164.5 112t203 38.5q61 0 123 -14q-60 63 -108 101q-55 41 -132 79l-293 -188l-55 90l231 145q-89 31 -157 47q-47 10 -109 21l35 90q192 -21 350 -76l271 176l57 -92l-205 -131q235 -94 371.5 -301t134.5 -467q0 -230 -139 -382 q-67 -72 -164 -112.5t-209 -40.5q-218 -4 -367.5 148.5t-146.5 374.5zM279 498q-2 -165 89 -272t228 -105q136 0 225 105q88 103 88 263q0 179 -84.5 283.5t-230.5 104.5q-137 2 -227 -106t-88 -273z" />
<glyph unicode="&#xf1;" horiz-adv-x="1169" d="M141 1001h174l9 -159q114 176 344 176q234 0 314 -167q34 -72 46 -159.5t12 -226.5v-465h-184v451q0 109 -3 158q-5 53 -13 87q-21 80 -76 122t-137 42q-93 0 -164.5 -55t-100.5 -150q-20 -59 -21 -141q-1 -28 -1 -147v-367h-186v494q-1 82 -3 157q-1 68 -3 169 q-4 118 -7 181zM248 1231q15 104 67.5 158.5t139.5 54.5q54 0 153 -42q50 -21 69 -27q18 -7 48 -7q41 0 62.5 19.5t35.5 70.5h97q-13 -98 -66.5 -156.5t-128.5 -58.5q-31 0 -76 15q-34 11 -80 29q-81 34 -131 34q-35 0 -58 -21.5t-38 -68.5h-94z" />
<glyph unicode="&#xf2;" horiz-adv-x="1186" d="M80 498q-3 229 144.5 380t367.5 150q145 2 264 -66.5t185.5 -191t64.5 -272.5q3 -149 -64 -270.5t-186.5 -189t-265.5 -65.5q-146 0 -262 67.5t-182 189.5t-66 268zM276 500q-2 -164 89.5 -273t228.5 -106q133 -4 225 105t90 268q1 168 -89 278.5t-226 108.5 q-137 0 -227 -108q-91 -107 -91 -273zM342 1485h205l162 -281h-131z" />
<glyph unicode="&#xf3;" horiz-adv-x="1186" d="M80 498q-3 229 144.5 380t367.5 150q145 2 264 -66.5t185.5 -191t64.5 -272.5q3 -149 -64 -270.5t-186.5 -189t-265.5 -65.5q-146 0 -262 67.5t-182 189.5t-66 268zM276 500q-2 -164 89.5 -273t228.5 -106q133 -4 225 105t90 268q1 168 -89 278.5t-226 108.5 q-137 0 -227 -108q-91 -107 -91 -273zM477 1204l162 281h205l-236 -281h-131z" />
<glyph unicode="&#xf4;" horiz-adv-x="1186" d="M80 498q-3 229 144.5 380t367.5 150q145 2 264 -66.5t185.5 -191t64.5 -272.5q3 -149 -64 -270.5t-186.5 -189t-265.5 -65.5q-146 0 -262 67.5t-182 189.5t-66 268zM276 500q-2 -164 89.5 -273t228.5 -106q133 -4 225 105t90 268q1 168 -89 278.5t-226 108.5 q-137 0 -227 -108q-91 -107 -91 -273zM295 1204l205 281h182l207 -281h-170l-133 189l-140 -189h-151z" />
<glyph unicode="&#xf5;" horiz-adv-x="1186" d="M80 498q-3 229 144.5 380t367.5 150q145 2 264 -66.5t185.5 -191t64.5 -272.5q3 -149 -64 -270.5t-186.5 -189t-265.5 -65.5q-146 0 -262 67.5t-182 189.5t-66 268zM256 1231q15 104 67.5 158.5t139.5 54.5q54 0 153 -42q50 -21 69 -27q18 -7 48 -7q41 0 62.5 19.5 t35.5 70.5h97q-13 -99 -66 -157t-129 -58q-48 0 -157 45q-84 33 -130 33q-35 0 -57 -20.5t-39 -69.5h-94zM276 500q-2 -164 89.5 -273t228.5 -106q133 -4 225 105t90 268q1 168 -89 278.5t-226 108.5q-137 0 -227 -108q-91 -107 -91 -273z" />
<glyph unicode="&#xf6;" horiz-adv-x="1186" d="M80 498q-3 229 144.5 380t367.5 150q145 2 264 -66.5t185.5 -191t64.5 -272.5q3 -149 -64 -270.5t-186.5 -189t-265.5 -65.5q-146 0 -262 67.5t-182 189.5t-66 268zM276 500q-2 -164 89.5 -273t228.5 -106q133 -4 225 105t90 268q1 168 -89 278.5t-226 108.5 q-137 0 -227 -108q-91 -107 -91 -273zM317 1245v199h179v-199h-179zM690 1245v199h178v-199h-178z" />
<glyph unicode="&#xf7;" d="M78 621v151h942v-151h-942zM451 291v194h196v-194h-196zM451 907v197h196v-197h-196z" />
<glyph unicode="&#xf8;" horiz-adv-x="1186" d="M80 498q-2 112 37 211.5t107 169.5t163.5 110t202.5 39q159 0 284 -80l121 150l97 -78l-121 -150q135 -147 135 -372q3 -147 -64.5 -269t-187.5 -190.5t-264 -65.5q-154 0 -287 84l-121 -149l-94 80l123 149q-131 155 -131 361zM276 498q0 -122 54 -217l436 542 q-76 58 -174 58q-134 3 -226.5 -109.5t-89.5 -273.5zM410 184q80 -63 184 -63q133 -4 225 105t90 268q0 140 -59 235z" />
<glyph unicode="&#xf9;" horiz-adv-x="1159" d="M129 469v530h186v-464q0 -55 3 -114q1 -50 7 -92q4 -32 15 -61q55 -135 197 -135q128 0 205 99t77 262v67v438h185v-630q0 -72 14 -369h-172l-8 156q-122 -170 -338 -170q-209 0 -290 130t-81 353zM328 1483h204l162 -281h-131z" />
<glyph unicode="&#xfa;" horiz-adv-x="1159" d="M129 469v530h186v-464q0 -55 3 -114q1 -50 7 -92q4 -32 15 -61q55 -135 197 -135q128 0 205 99t77 262v67v438h185v-630q0 -72 14 -369h-172l-8 156q-122 -170 -338 -170q-209 0 -290 130t-81 353zM463 1202l162 281h204l-235 -281h-131z" />
<glyph unicode="&#xfb;" horiz-adv-x="1159" d="M129 469v530h186v-464q0 -55 3 -114q1 -50 7 -92q4 -32 15 -61q55 -135 197 -135q128 0 205 99t77 262v67v438h185v-630q0 -72 14 -369h-172l-8 156q-122 -170 -338 -170q-209 0 -290 130t-81 353zM281 1202l204 281h183l206 -281h-169l-134 189l-139 -189h-151z" />
<glyph unicode="&#xfc;" horiz-adv-x="1159" d="M129 469v530h186v-464q0 -55 3 -114q1 -50 7 -92q4 -32 15 -61q55 -135 197 -135q128 0 205 99t77 262v67v438h185v-630q0 -72 14 -369h-172l-8 156q-122 -170 -338 -170q-209 0 -290 130t-81 353zM303 1243v199h178v-199h-178zM676 1243v199h178v-199h-178z" />
<glyph unicode="&#xfd;" horiz-adv-x="965" d="M12 1001h201l223 -632q46 -134 53 -207q11 64 43 160l236 679h184l-356 -991q-52 -146 -94 -234q-38 -77 -116 -140q-76 -60 -198 -60q-49 0 -114 16l10 150q48 -18 88 -18q90 0 142 66q54 67 83 169zM369 1204l161 281h205l-235 -281h-131z" />
<glyph unicode="&#xfe;" horiz-adv-x="1188" d="M154 -420v1895h184v-476q0 -83 -12 -176q125 195 350 195q192 2 311 -138t119 -368q1 -235 -119 -382.5t-315 -143.5q-123 0 -206.5 47t-137.5 147q0 -8 5 -81q5 -75 5 -109v-410h-184zM338 498q-2 -147 85.5 -253t209.5 -102q116 -3 197 102t79 255q0 161 -74.5 259.5 t-199.5 98.5q-125 2 -212.5 -103.5t-84.5 -256.5z" />
<glyph unicode="&#xff;" horiz-adv-x="965" d="M12 1001h201l223 -632q46 -134 53 -207q11 64 43 160l236 679h184l-356 -991q-52 -146 -94 -234q-38 -77 -116 -140q-76 -60 -198 -60q-49 0 -114 16l10 150q48 -18 88 -18q90 0 142 66q54 67 83 169zM207 1245v199h178v-199h-178zM580 1245v199h178v-199h-178z" />
<glyph unicode="&#x152;" horiz-adv-x="1855" d="M98 694q-3 205 104.5 369.5t286.5 236.5q132 53 338 62q54 2 203 2q102 2 230 2h450v-168h-549v-405h510v-168h-510v-459h568v-166h-658q-124 4 -211 4q-158 0 -296.5 46t-242.5 135q-107 90 -165 221t-58 288zM307 694q-4 -237 147 -380.5t404 -143.5q78 0 111 -4v1032 h-109q-264 0 -408.5 -132t-144.5 -372z" />
<glyph unicode="&#x153;" horiz-adv-x="1851" d="M80 508q-2 146 62.5 267t179 189t251.5 66q145 0 254.5 -61t141.5 -160q39 108 130 164.5t228 56.5q128 0 225 -55t152 -158q37 -67 51 -145q14 -81 14 -213h-704q12 -153 102 -240q89 -88 234 -88q140 0 270 92v-182q-138 -68 -309 -68q-151 0 -256 59.5t-137 162.5 q-28 -98 -138 -160.5t-247 -61.5q-143 -1 -259.5 68.5t-181.5 193t-63 273.5zM276 502q-2 -162 86.5 -272.5t217.5 -108.5q130 -2 218.5 108t86.5 271q2 164 -86.5 275t-220.5 108q-131 2 -217 -107t-85 -274zM1067 606h500q-5 126 -70.5 201.5t-171.5 75.5 q-102 0 -174.5 -79t-83.5 -198z" />
<glyph unicode="&#x178;" horiz-adv-x="1288" d="M10 1366h242l338 -512q42 -64 59 -102q27 52 56 96l342 518h231l-533 -786v-580h-194v573zM371 1550v199h178v-199h-178zM743 1550v199h179v-199h-179z" />
<glyph unicode="&#x2c6;" horiz-adv-x="1024" d="M215 1202l205 281h182l207 -281h-170l-133 189l-139 -189h-152z" />
<glyph unicode="&#x2dc;" horiz-adv-x="1024" d="M176 1231q32 213 207 213q54 0 153 -42q50 -21 69 -27q18 -7 48 -7q41 0 62.5 20.5t36.5 69.5h96q-13 -99 -66 -157t-129 -58q-51 0 -154 44q-84 34 -132 34q-36 0 -58 -20.5t-39 -69.5h-94z" />
<glyph unicode="&#x2000;" horiz-adv-x="923" />
<glyph unicode="&#x2001;" horiz-adv-x="1847" />
<glyph unicode="&#x2002;" horiz-adv-x="923" />
<glyph unicode="&#x2003;" horiz-adv-x="1847" />
<glyph unicode="&#x2004;" horiz-adv-x="615" />
<glyph unicode="&#x2005;" horiz-adv-x="461" />
<glyph unicode="&#x2006;" horiz-adv-x="307" />
<glyph unicode="&#x2007;" horiz-adv-x="307" />
<glyph unicode="&#x2008;" horiz-adv-x="230" />
<glyph unicode="&#x2009;" horiz-adv-x="369" />
<glyph unicode="&#x200a;" horiz-adv-x="102" />
<glyph unicode="&#x2010;" horiz-adv-x="514" d="M0 428v154h514v-154h-514z" />
<glyph unicode="&#x2011;" horiz-adv-x="514" d="M0 428v154h514v-154h-514z" />
<glyph unicode="&#x2012;" horiz-adv-x="514" d="M0 428v154h514v-154h-514z" />
<glyph unicode="&#x2013;" d="M86 428v154h926v-154h-926z" />
<glyph unicode="&#x2014;" horiz-adv-x="1456" d="M0 428v154h1456v-154h-1456z" />
<glyph unicode="&#x2018;" horiz-adv-x="559" d="M123 993l170 482h172l-123 -482h-219z" />
<glyph unicode="&#x2019;" horiz-adv-x="559" d="M94 993l123 482h219l-170 -482h-172z" />
<glyph unicode="&#x201a;" horiz-adv-x="559" d="M94 -262l123 481h219l-170 -481h-172z" />
<glyph unicode="&#x201c;" horiz-adv-x="932" d="M123 993l170 482h172l-123 -482h-219zM496 993l170 482h172l-123 -482h-219z" />
<glyph unicode="&#x201d;" horiz-adv-x="932" d="M94 993l123 482h219l-170 -482h-172zM467 993l121 482h221l-170 -482h-172z" />
<glyph unicode="&#x201e;" horiz-adv-x="932" d="M123 -264l123 483h219l-170 -483h-172zM496 -264l120 483h222l-170 -483h-172z" />
<glyph unicode="&#x2022;" horiz-adv-x="1229" d="M406 586q0 81 58 139q57 57 138 57q81 1 142.5 -58t58.5 -138q0 -83 -58 -140q-59 -57 -143 -57q-82 0 -139 57t-57 140z" />
<glyph unicode="&#x2026;" horiz-adv-x="1642" d="M164 0v219h219v-219h-219zM711 0v219h221v-219h-221zM1260 0v219h219v-219h-219z" />
<glyph unicode="&#x202f;" horiz-adv-x="369" />
<glyph unicode="&#x2039;" horiz-adv-x="698" d="M111 506l274 397h178l-254 -397l258 -406h-174z" />
<glyph unicode="&#x203a;" horiz-adv-x="698" d="M131 100l258 406l-254 397h178l275 -397l-283 -406h-174z" />
<glyph unicode="&#x205f;" horiz-adv-x="461" />
<glyph unicode="&#x2122;" horiz-adv-x="1763" d="M0 1260v108h651v-108h-256v-672h-133v672h-262zM748 588v780h206l164 -389q65 -149 90 -229q36 104 90 231l158 387h209v-780h-131v444q0 18 0.5 53t1.5 52v123q-40 -122 -113 -295l-155 -377h-125l-158 377q-6 15 -30 76q-8 20 -43 105q-14 33 -40 103q9 -135 9 -225 v-436h-133z" />
<glyph unicode="&#x25fc;" horiz-adv-x="1000" d="M0 0v1000h1000v-1000h-1000z" />
</font>
</defs>
</svg>
